<?xml version="1.0" standalone="no"?>
<!DOCTYPE svg PUBLIC "-//W3C//DTD SVG 20010904//EN"
 "http://www.w3.org/TR/2001/REC-SVG-20010904/DTD/svg10.dtd">
<svg version="1.0" xmlns="http://www.w3.org/2000/svg"
 width="500.000000pt" height="500.000000pt" viewBox="0 0 500.000000 500.000000"
 preserveAspectRatio="xMidYMid meet">

<g transform="translate(0.000000,500.000000) scale(0.100000,-0.100000)"
fill="#000000" stroke="none">
<path d="M2733 2798 c-25 -5 -59 -24 -87 -49 l-46 -41 0 41 0 41 -105 0 -105
0 0 -300 0 -300 105 0 105 0 0 166 c0 177 9 218 54 249 26 19 112 19 147 1 26
-13 26 -13 68 71 23 46 39 88 36 93 -14 23 -116 40 -172 28z"/>
<path d="M1130 2779 c-25 -11 -55 -30 -67 -41 l-23 -21 0 36 0 37 -100 0 -100
0 0 -450 0 -450 100 0 100 0 0 175 c0 96 2 175 5 175 2 0 20 -11 40 -24 105
-72 278 -48 363 49 55 62 75 112 80 201 8 145 -46 246 -159 303 -78 39 -168
42 -239 10z m125 -173 c39 -26 56 -60 57 -115 0 -83 -56 -141 -137 -141 -104
0 -166 107 -119 205 31 67 135 93 199 51z"/>
<path d="M3856 2780 c-85 -33 -126 -88 -126 -170 0 -81 40 -124 173 -184 57
-26 77 -40 77 -54 0 -53 -71 -59 -155 -14 l-56 30 -25 -41 c-15 -23 -33 -53
-41 -65 -13 -21 -13 -26 3 -43 9 -10 42 -28 73 -40 68 -26 201 -31 275 -10 85
25 146 103 146 189 0 29 -26 91 -48 115 -21 24 -90 59 -160 81 -61 21 -81 46
-55 72 21 20 103 15 152 -10 l31 -16 34 69 35 69 -27 10 c-96 38 -227 43 -306
12z"/>
<path d="M1622 2568 c3 -206 5 -226 25 -263 47 -88 121 -125 263 -132 174 -10
277 33 326 134 28 57 29 61 33 271 l3 212 -105 0 -104 0 -8 -187 c-5 -129 -11
-196 -21 -215 -19 -38 -80 -55 -133 -40 -65 20 -75 54 -79 265 l-4 177 -99 0
-100 0 3 -222z"/>
<path d="M2960 2587 c0 -237 10 -286 66 -341 48 -47 110 -67 225 -73 181 -10
308 54 337 170 7 27 12 128 12 246 l0 201 -100 0 -100 0 0 -162 c-1 -240 -14
-277 -107 -285 -36 -3 -56 1 -80 16 -42 27 -53 82 -53 276 l0 155 -100 0 -100
0 0 -203z"/>
</g>
</svg>
